<svg id="visual" viewBox="0 0 900 600" width="900" height="600" xmlns="http://www.w3.org/2000/svg" xmlns:xlink="http://www.w3.org/1999/xlink" version="1.1"><rect x="0" y="0" width="900" height="600" fill="#121212"></rect><path d="M0 186L21.5 195C43 204 86 222 128.8 220.5C171.7 219 214.3 198 257.2 196.3C300 194.7 343 212.3 385.8 216.8C428.7 221.3 471.3 212.7 514.2 206.3C557 200 600 196 642.8 197.8C685.7 199.7 728.3 207.3 771.2 213.2C814 219 857 223 878.5 225L900 227L900 0L878.5 0C857 0 814 0 771.2 0C728.3 0 685.7 0 642.8 0C600 0 557 0 514.2 0C471.3 0 428.7 0 385.8 0C343 0 300 0 257.2 0C214.3 0 171.7 0 128.8 0C86 0 43 0 21.5 0L0 0Z" fill="#008080"></path><path d="M0 144L21.5 151.2C43 158.3 86 172.7 128.8 176.3C171.7 180 214.3 173 257.2 164.5C300 156 343 146 385.8 145.2C428.7 144.3 471.3 152.7 514.2 155.5C557 158.3 600 155.7 642.8 155.3C685.7 155 728.3 157 771.2 152C814 147 857 135 878.5 129L900 123L900 0L878.5 0C857 0 814 0 771.2 0C728.3 0 685.7 0 642.8 0C600 0 557 0 514.2 0C471.3 0 428.7 0 385.8 0C343 0 300 0 257.2 0C214.3 0 171.7 0 128.8 0C86 0 43 0 21.5 0L0 0Z" fill="#00696a"></path><path d="M0 93L21.5 101.8C43 110.7 86 128.3 128.8 130.2C171.7 132 214.3 118 257.2 117.5C300 117 343 130 385.8 139.3C428.7 148.7 471.3 154.3 514.2 155.3C557 156.3 600 152.7 642.8 145.7C685.7 138.7 728.3 128.3 771.2 126.2C814 124 857 130 878.5 133L900 136L900 0L878.5 0C857 0 814 0 771.2 0C728.3 0 685.7 0 642.8 0C600 0 557 0 514.2 0C471.3 0 428.7 0 385.8 0C343 0 300 0 257.2 0C214.3 0 171.7 0 128.8 0C86 0 43 0 21.5 0L0 0Z" fill="#005254"></path><path d="M0 105L21.5 102.5C43 100 86 95 128.8 87.5C171.7 80 214.3 70 257.2 66.7C300 63.3 343 66.7 385.8 73C428.7 79.3 471.3 88.7 514.2 87C557 85.3 600 72.7 642.8 65.8C685.7 59 728.3 58 771.2 62.2C814 66.3 857 75.7 878.5 80.3L900 85L900 0L878.5 0C857 0 814 0 771.2 0C728.3 0 685.7 0 642.8 0C600 0 557 0 514.2 0C471.3 0 428.7 0 385.8 0C343 0 300 0 257.2 0C214.3 0 171.7 0 128.8 0C86 0 43 0 21.5 0L0 0Z" fill="#003d3f"></path><path d="M0 38L21.5 39.8C43 41.7 86 45.3 128.8 50.5C171.7 55.7 214.3 62.3 257.2 63.8C300 65.3 343 61.7 385.8 62.5C428.7 63.3 471.3 68.7 514.2 63.5C557 58.3 600 42.7 642.8 35C685.7 27.3 728.3 27.7 771.2 33C814 38.3 857 48.7 878.5 53.8L900 59L900 0L878.5 0C857 0 814 0 771.2 0C728.3 0 685.7 0 642.8 0C600 0 557 0 514.2 0C471.3 0 428.7 0 385.8 0C343 0 300 0 257.2 0C214.3 0 171.7 0 128.8 0C86 0 43 0 21.5 0L0 0Z" fill="#00292b"></path></svg>